<?xml version="1.0" encoding="UTF-8"?>
<svg id="01iBDNhxN" viewBox="0 0 370 74.39321096695116" height="74.39321096695116" width="370" style="width: 370px; height: 74.3932px; position: absolute; top: 50%; left: 50%; z-index: 0; cursor: pointer; overflow: visible; transform: translate(-50%, -50%) scale(0.667568);">
    <title>logo-cloudy</title>
    <g id="SvgjsG1712" featurekey="symbolFeature-0" transform="matrix(1,0,0,1,0,-12)" fill="#46cdcf">
        <path xmlns="http://www.w3.org/2000/svg" fill-rule="evenodd" clip-rule="evenodd" fill="#46cdcf" d="M82.415,46.854L82.415,46.854c0.29-1.278,0.442-2.61,0.442-3.975  c0-9.958-8.071-18.031-18.027-18.031c-7.244,0-13.489,4.271-16.357,10.435l0.002,0.002l-0.116,0.252l-0.055,0.126l-0.055,0.128  c-1.067,2.497-1.555,5.181-1.425,8.064l0.004,0.023v0.013v0.034l0.003,0.038l0.002,0.034l0.003,0.029  c0.026,0.385,0.058,0.764,0.107,1.143c-0.101-0.743-0.259-1.438-0.464-2.099l-0.049-0.152l-0.003-0.015l-0.05-0.137l-0.028-0.088  l-0.023-0.059l-0.053-0.147l-0.008-0.021l-0.049-0.124l-0.041-0.099l-0.018-0.046c-0.351-0.844-0.803-1.64-1.337-2.368l-0.048-0.065  l-0.041-0.055l-0.093-0.118l-0.011-0.015l-0.083-0.101l-0.063-0.082l-0.032-0.034l-0.096-0.116c-0.717-0.835-1.56-1.57-2.514-2.219  l0.003-0.006c-1.783-1.16-3.918-1.837-6.202-1.837c-4.93,0-9.131,3.13-10.715,7.515l-0.033,0.093l-0.031,0.09l-0.011,0.034  l-0.021,0.059c-0.374,1.13-0.578,2.336-0.578,3.595c0,0.629,0.052,1.246,0.151,1.851l-0.018-0.004l-0.048-0.01l-0.041-0.011h-0.008  l-0.051-0.015l-0.03-0.011L24.19,48.35l-0.046-0.013l-0.029-0.004l-0.02-0.002l-0.25-0.057v-0.002l-0.049-0.008  c-0.861-0.177-1.747-0.267-2.661-0.267c-0.572,0-1.138,0.031-1.691,0.103l-0.003,0.004l-0.62,0.092l-0.038,0.008  c-6.22,1.114-10.935,6.54-10.935,13.075c0,7.338,5.947,13.287,13.287,13.287v-0.002h0.112h13.437h33.863h12.569h0.907l-0.009-0.037  c5.676-0.459,10.136-5.203,10.136-10.998c0-4.346-2.516-8.107-6.17-9.904l-0.08-0.037l-0.004-0.008l-0.091-0.039  c-1.425-0.664-3.012-1.041-4.689-1.041c-0.288,0-0.583,0.012-0.869,0.031h-0.005l-0.029,0.004l-0.033,0.002l-0.034,0.004  l-0.033,0.002l-0.034,0.002l-0.029,0.006l0.053-0.084l0.031-0.047l0.021-0.037c0.646-1.045,1.191-2.157,1.618-3.332l0.023-0.057  l0.031-0.09l0.053-0.152l0.009-0.029C82.091,48.112,82.264,47.485,82.415,46.854L82.415,46.854z"></path>
        <path xmlns="http://www.w3.org/2000/svg" fill="#46cdcf" d="M81.116,82.414l-0.931-0.025l-58.997,0.025C9.481,82.414,0,72.932,0,61.279  c0-10.318,7.376-19.016,17.385-20.801c2.588-7.82,9.896-13.164,18.257-13.164c2.569,0,5.112,0.516,7.46,1.504  C47.853,21.48,56.001,17,64.83,17c14.269,0,25.877,11.609,25.877,25.879c0,1.405-0.113,2.808-0.337,4.188  c5.902,3.319,9.63,9.605,9.63,16.462c0,10.035-7.845,18.318-17.861,18.855L81.116,82.414z M35.642,31.625  c-6.871,0-12.827,4.65-14.484,11.309l-0.363,1.46l-1.496,0.162c-8.544,0.929-14.987,8.119-14.987,16.723  c0,9.277,7.546,16.822,16.823,16.822l0.874-0.02l58.234-0.002l0.873,0.021l0.804-0.02c7.716-0.418,13.771-6.809,13.771-14.553  c0-5.742-3.388-10.963-8.628-13.306L85.44,49.5l0.4-1.729c0.368-1.593,0.555-3.24,0.555-4.891c0-11.892-9.675-21.568-21.565-21.568  c-7.937,0-15.213,4.344-18.991,11.336l-1.04,1.924l-1.908-1.066C40.691,32.275,38.184,31.625,35.642,31.625z"></path>
        <path xmlns="http://www.w3.org/2000/svg" fill-rule="evenodd" clip-rule="evenodd" fill="#46cdcf" d="M80.049,52.551"></path>
    </g>
    <g id="SvgjsG1713" featurekey="nameFeature-0" transform="matrix(2.1983816623687744,0,0,2.1983816623687744,114.02040231263473,-34.55857305452816)" fill="#46cdcf">
        <path d="M23.32 33.24 c0.2 0 0.36 0.08 0.48 0.2 c0.12 0.16 0.16 0.32 0.16 0.52 c0 0.76 -0.36 1.6 -1.08 2.6 s-1.52 1.8 -2.32 2.36 c-0.52 0.28 -1 0.52 -1.56 0.68 s-1.04 0.28 -1.44 0.36 c-0.08 0.04 -0.16 0.04 -0.24 0.08 c-0.76 0.16 -1.56 0.24 -2.44 0.24 c-2.48 0 -4.64 -0.48 -6.48 -1.48 c-1.84 -0.96 -3.24 -2.36 -4.2 -4.2 c-1 -1.8 -1.48 -3.96 -1.48 -6.44 c0 -3.96 1.08 -7 3.28 -9.16 c2.2 -2.2 5.2 -3.28 9.08 -3.28 c1.08 0 1.96 0.08 2.64 0.24 l0.12 0 c0.04 0.04 0.08 0.04 0.16 0.04 c0.16 0.04 0.32 0.08 0.48 0.16 l0.04 0 l0.04 0 c2.36 0.84 4.04 2.56 4.96 5.2 c0.2 0.76 0.16 1.44 -0.12 2.04 s-0.68 1 -1.24 1.2 c-0.56 0.24 -1.16 0.16 -1.8 -0.12 c-0.52 -0.28 -0.92 -0.6 -1.12 -1 c-0.24 -0.44 -0.2 -0.88 0 -1.36 c0.12 -0.2 0.28 -0.4 0.48 -0.64 c0.2 -0.16 0.4 -0.36 0.52 -0.64 c0.12 -0.24 0.2 -0.44 0.28 -0.68 c0.04 -0.2 0.04 -0.44 -0.04 -0.68 c-0.12 -0.36 -0.28 -0.64 -0.52 -0.88 c-1.28 -1.08 -2.72 -1.6 -4.32 -1.6 c-2.2 0 -3.88 0.96 -5.12 2.88 c-0.68 1.12 -1.2 2.52 -1.48 4.2 c-0.2 1.2 -0.32 2.56 -0.32 4.08 c0 3.4 0.64 6.04 1.92 7.92 s3 2.8 5.16 2.8 c1.68 0 3.16 -0.52 4.4 -1.6 c1.16 -0.96 1.92 -2.16 2.32 -3.56 c0.12 -0.32 0.32 -0.48 0.6 -0.48 l0.2 0 z M25.52 39.32 l0 0.04 c0 0.16 0.04 0.32 0.16 0.44 c0.16 0.12 0.32 0.2 0.48 0.2 l7.64 0 c0.2 0 0.36 -0.08 0.48 -0.2 s0.2 -0.28 0.2 -0.44 l0 -0.04 c0 -0.16 -0.08 -0.32 -0.2 -0.48 c-0.16 -0.12 -0.32 -0.16 -0.52 -0.16 l-0.6 0.04 c-0.36 0.04 -0.52 -0.24 -0.52 -0.76 l0 -21.4 c0 -0.16 -0.08 -0.32 -0.2 -0.44 s-0.28 -0.2 -0.44 -0.2 l-5.84 0 c-0.16 0 -0.32 0.08 -0.44 0.2 s-0.16 0.28 -0.16 0.44 s0.04 0.32 0.16 0.44 c0.16 0.12 0.32 0.2 0.48 0.16 l0.68 -0.04 c0.32 0.12 0.48 0.4 0.48 0.84 l0 20 c0 0.4 -0.16 0.68 -0.52 0.76 l-0.64 -0.04 c-0.2 0 -0.36 0.04 -0.48 0.16 c-0.16 0.16 -0.2 0.32 -0.2 0.48 z M38.2 24.880000000000003 c1.48 -1.52 3.72 -2.28 6.72 -2.28 s5.24 0.76 6.72 2.28 s2.2 3.72 2.2 6.6 c0 5.96 -2.96 8.92 -8.92 8.92 c-3 0 -5.24 -0.76 -6.72 -2.28 s-2.24 -3.72 -2.24 -6.64 c0 -2.88 0.76 -5.08 2.24 -6.6 z M42.36 37.28 c0.52 1.16 1.36 1.72 2.56 1.72 s2.04 -0.56 2.56 -1.68 s0.76 -3.04 0.76 -5.76 c0 -2.76 -0.24 -4.72 -0.76 -5.88 s-1.36 -1.72 -2.56 -1.72 s-2.04 0.56 -2.56 1.72 s-0.8 3.12 -0.8 5.88 c0 2.68 0.28 4.6 0.8 5.72 z M75.60000000000001 39.32 c0 -0.16 -0.08 -0.32 -0.2 -0.48 c-0.16 -0.12 -0.32 -0.16 -0.52 -0.16 l-0.6 0.04 c-0.36 -0.04 -0.52 -0.28 -0.52 -0.76 l0 -15.04 l-5.28 0 c-0.24 0 -0.48 0.08 -0.64 0.24 c-0.16 0.2 -0.24 0.4 -0.24 0.64 l0 0.04 c0 0.08 0 0.16 0.08 0.24 l0.24 0.12 c0.12 0 0.24 0.04 0.36 0.16 c0.12 0.08 0.16 0.28 0.16 0.6 l0 6.2 c-0.04 1.56 -0.24 2.88 -0.64 4 s-0.92 1.96 -1.56 2.52 s-1.24 0.84 -1.92 0.84 c-0.72 0 -1.16 -0.32 -1.4 -0.88 c-0.24 -0.6 -0.36 -1.56 -0.36 -2.96 l0 -11.76 l-6.48 0 c-0.16 0 -0.32 0.04 -0.44 0.2 c-0.12 0.12 -0.2 0.28 -0.2 0.44 c0 0.2 0.08 0.32 0.2 0.48 c0.16 0.12 0.32 0.16 0.48 0.16 l0.68 -0.04 c0.32 0 0.52 0.24 0.52 0.76 l0 9.52 c0 2.08 0.4 3.6 1.2 4.52 c0.8 0.96 2.08 1.44 3.8 1.44 c2.28 0 4 -0.8 5.24 -2.44 c0.16 -0.2 0.36 -0.24 0.56 -0.2 c0.2 0.08 0.32 0.24 0.32 0.48 l0 0 c0 0.52 0.2 0.92 0.52 1.24 c0.32 0.36 0.72 0.52 1.2 0.52 l4.76 0 c0.2 0 0.36 -0.08 0.48 -0.2 s0.2 -0.28 0.2 -0.48 z M78.60000000000001 24.8 c-1.2 1.48 -1.8 3.76 -1.8 6.72 c0 3.04 0.56 5.28 1.68 6.72 s2.96 2.16 5.56 2.16 c1.28 0 2.32 -0.24 3.12 -0.8 c0.52 -0.36 0.92 -0.8 1.24 -1.32 c0.08 -0.08 0.16 -0.12 0.28 -0.08 s0.16 0.12 0.16 0.24 l-0.04 0.92 c0 0.2 0.08 0.32 0.2 0.44 s0.28 0.2 0.44 0.2 l6 0 c0.2 0 0.36 -0.08 0.48 -0.2 s0.2 -0.28 0.2 -0.48 c0 -0.16 -0.08 -0.32 -0.2 -0.48 c-0.16 -0.12 -0.32 -0.16 -0.52 -0.16 l-0.6 0.04 c-0.36 0 -0.52 -0.28 -0.52 -0.76 l0 -21.36 c0 -0.16 -0.08 -0.32 -0.2 -0.44 s-0.28 -0.2 -0.44 -0.2 l-6.4 0 c-0.16 0 -0.32 0.08 -0.44 0.2 s-0.16 0.28 -0.16 0.44 s0.04 0.32 0.2 0.44 c0.12 0.12 0.28 0.2 0.44 0.2 l1.2 -0.08 c0.36 0 0.52 0.28 0.52 0.8 l0 4.56 c0 0.44 -0.2 0.8 -0.56 1 c-0.4 0.2 -0.76 0.16 -1.16 -0.08 l-0.08 -0.04 c-0.88 -0.6 -1.96 -0.88 -3.2 -0.88 c-2.36 0 -4.16 0.76 -5.4 2.28 z M82.68 35.68 c-0.2 -0.96 -0.28 -2.36 -0.28 -4.16 c0 -2.36 0.24 -4.16 0.68 -5.36 c0.44 -1.24 1.2 -1.84 2.28 -1.84 c1.12 0 2.04 0.56 2.64 1.72 c0.6 1.12 0.92 2.72 0.92 4.76 l0 1.72 c0 2 -0.28 3.52 -0.88 4.52 c-0.56 1 -1.44 1.52 -2.64 1.52 c-0.8 0 -1.4 -0.24 -1.84 -0.68 c-0.4 -0.48 -0.72 -1.2 -0.88 -2.2 z M116.44 23.52 c0 -0.16 -0.08 -0.32 -0.2 -0.44 s-0.28 -0.2 -0.44 -0.2 l-5.12 0 c-0.16 0 -0.32 0.08 -0.44 0.2 s-0.2 0.28 -0.2 0.44 c0 0.2 0.08 0.36 0.2 0.48 s0.28 0.2 0.48 0.2 l1.2 -0.08 c0.32 0 0.44 0.12 0.44 0.36 c0 0.12 0 0.2 -0.04 0.24 l-3.16 7.56 c-0.12 0.28 -0.28 0.4 -0.56 0.4 c-0.24 0.04 -0.44 -0.08 -0.6 -0.36 l-3.68 -7.52 c-0.08 -0.16 -0.04 -0.32 0.04 -0.44 c0.12 -0.16 0.28 -0.24 0.44 -0.24 l1.16 0.08 c0.16 0 0.32 -0.08 0.48 -0.2 c0.12 -0.12 0.2 -0.28 0.2 -0.48 c0 -0.16 -0.08 -0.32 -0.2 -0.44 s-0.28 -0.2 -0.48 -0.2 l-9.08 0 c-0.16 0 -0.32 0.08 -0.44 0.2 s-0.2 0.28 -0.2 0.44 c0 0.2 0.08 0.36 0.2 0.48 s0.28 0.2 0.48 0.16 l0.88 -0.04 c0.28 0 0.48 0.2 0.68 0.52 l7.24 15.32 c0.08 0.16 0.08 0.32 0.04 0.52 l-1.8 4.28 c-0.32 0.76 -0.6 1.24 -0.84 1.56 c-0.28 0.28 -0.56 0.4 -0.92 0.4 c-0.24 0 -0.44 -0.08 -0.6 -0.2 c-0.12 -0.16 -0.28 -0.4 -0.44 -0.72 c-0.24 -0.44 -0.52 -0.8 -0.84 -1.08 c-0.28 -0.24 -0.76 -0.36 -1.36 -0.36 s-1.12 0.2 -1.6 0.68 c-0.48 0.44 -0.72 1.08 -0.72 1.92 c0.08 0.88 0.4 1.52 1 1.96 s1.4 0.64 2.4 0.64 c1.24 0 2.32 -0.32 3.16 -1.04 c0.88 -0.72 1.68 -2 2.44 -3.88 l8.2 -19.76 c0.2 -0.48 0.52 -0.76 1.04 -0.76 l0.08 0 l0.8 0.04 c0.16 0 0.36 -0.04 0.48 -0.16 s0.2 -0.28 0.2 -0.48 z"></path>
    </g>
</svg>